<?xml version="1.0" encoding="UTF-8"?>
<!-- Seven Koi breed micro-crests. Order: koi 1 left to koi 7 right. See design/style_guide.md section 5. -->
<svg xmlns="http://www.w3.org/2000/svg" viewBox="0 0 800 92" width="800" height="92" role="img" aria-labelledby="title desc">
  <title id="title">Seven Koi breed crests</title>
  <desc id="desc">Seven horizontal slot motifs: Kohaku, Showa, Asagi, Ogon, Chagoi, Tancho, Kumonryu.</desc>

  <defs>
    <linearGradient id="ogonShine" x1="0" y1="0" x2="0" y2="1">
      <stop offset="0%" stop-color="#F5EDB8" stop-opacity="0.95"/>
      <stop offset="35%" stop-color="#E0B040" stop-opacity="0"/>
      <stop offset="100%" stop-color="#C49A2E"/>
    </linearGradient>
    <pattern id="asagiScale" width="5" height="5" patternUnits="userSpaceOnUse">
      <rect width="5" height="5" fill="#2E6F95"/>
      <path d="M0 0 L5 5 M5 0 L0 5" stroke="#1a4a6b" stroke-width="0.35" opacity="0.85"/>
    </pattern>
    <style type="text/css"><![CDATA[
      .slot { fill: none; stroke: #3d3d3d; stroke-width: 1.25; }
      .label { font-family: system-ui, -apple-system, "Segoe UI", sans-serif; font-size: 10px; fill: #2a2a2a; font-weight: 600; }
      .sublabel { font-family: system-ui, -apple-system, "Segoe UI", sans-serif; font-size: 8px; fill: #555; }
    ]]></style>
  </defs>

  <rect width="800" height="92" fill="#f4f2ec"/>

  <!-- 1 Kohaku -->
  <g transform="translate(14,14)">
    <rect class="slot" x="0" y="0" width="92" height="38" rx="2"/>
    <rect x="1" y="1" width="90" height="36" rx="1" fill="#f5f5f0"/>
    <rect x="6" y="22" width="36" height="12" fill="#D7263D" rx="1"/>
    <rect x="44" y="14" width="28" height="20" fill="#D7263D" rx="1"/>
    <rect x="22" y="8" width="18" height="14" fill="#D7263D" rx="1"/>
  </g>
  <text class="label" x="60" y="66" text-anchor="middle">Kohaku</text>
  <text class="sublabel" x="60" y="78" text-anchor="middle">#1</text>

  <!-- 2 Showa -->
  <g transform="translate(128,14)">
    <rect class="slot" x="0" y="0" width="92" height="38" rx="2"/>
    <rect x="1" y="1" width="30" height="36" fill="#1A1A1A"/>
    <rect x="31" y="1" width="30" height="36" fill="#f5f5f0"/>
    <rect x="61" y="1" width="30" height="36" fill="#D7263D"/>
  </g>
  <text class="label" x="174" y="66" text-anchor="middle">Showa</text>
  <text class="sublabel" x="174" y="78" text-anchor="middle">#2</text>

  <!-- 3 Asagi -->
  <g transform="translate(242,14)">
    <rect class="slot" x="0" y="0" width="92" height="38" rx="2"/>
    <rect x="1" y="1" width="90" height="36" rx="1" fill="#f5f5f0"/>
    <rect x="1" y="1" width="12" height="36" fill="#D7263D"/>
    <rect x="79" y="1" width="12" height="36" fill="#D7263D"/>
    <rect x="15" y="1" width="62" height="36" fill="url(#asagiScale)"/>
  </g>
  <text class="label" x="288" y="66" text-anchor="middle">Asagi</text>
  <text class="sublabel" x="288" y="78" text-anchor="middle">#3</text>

  <!-- 4 Ogon -->
  <g transform="translate(356,14)">
    <rect class="slot" x="0" y="0" width="92" height="38" rx="2"/>
    <rect x="1" y="1" width="90" height="36" rx="1" fill="#E0B040"/>
    <rect x="1" y="1" width="90" height="36" rx="1" fill="url(#ogonShine)"/>
  </g>
  <text class="label" x="402" y="66" text-anchor="middle">Ogon</text>
  <text class="sublabel" x="402" y="78" text-anchor="middle">#4</text>

  <!-- 5 Chagoi -->
  <g transform="translate(470,14)">
    <rect class="slot" x="0" y="0" width="92" height="38" rx="2"/>
    <rect x="1" y="1" width="90" height="36" rx="1" fill="#7B4B2A"/>
    <g opacity="0.22" stroke="#3d2818" stroke-width="0.6">
      <line x1="8" y1="4" x2="8" y2="34"/>
      <line x1="22" y1="4" x2="22" y2="34"/>
      <line x1="36" y1="4" x2="36" y2="34"/>
      <line x1="50" y1="4" x2="50" y2="34"/>
      <line x1="64" y1="4" x2="64" y2="34"/>
      <line x1="78" y1="4" x2="78" y2="34"/>
    </g>
  </g>
  <text class="label" x="516" y="66" text-anchor="middle">Chagoi</text>
  <text class="sublabel" x="516" y="78" text-anchor="middle">#5</text>

  <!-- 6 Tancho -->
  <g transform="translate(584,14)">
    <rect class="slot" x="0" y="0" width="92" height="38" rx="2"/>
    <rect x="1" y="1" width="90" height="36" rx="1" fill="#f5f5f0"/>
    <circle cx="46" cy="19" r="11" fill="#D7263D"/>
  </g>
  <text class="label" x="630" y="66" text-anchor="middle">Tancho</text>
  <text class="sublabel" x="630" y="78" text-anchor="middle">#6</text>

  <!-- 7 Kumonryu -->
  <g transform="translate(698,14)">
    <rect class="slot" x="0" y="0" width="92" height="38" rx="2"/>
    <rect x="1" y="1" width="90" height="36" rx="1" fill="#f5f5f0"/>
    <path fill="#2B2B2B" d="M18 26 C10 18 14 8 28 10 C42 12 48 22 40 30 C32 36 22 34 18 26Z"/>
    <path fill="#2B2B2B" d="M52 12 C68 8 78 18 72 28 C66 36 54 34 48 24 C46 18 48 14 52 12Z"/>
    <path fill="#2B2B2B" opacity="0.92" d="M34 22 C44 14 58 16 62 26 C58 32 48 30 42 26 C38 24 36 22 34 22Z"/>
  </g>
  <text class="label" x="744" y="66" text-anchor="middle">Kumonryu</text>
  <text class="sublabel" x="744" y="78" text-anchor="middle">#7</text>
</svg>
