<?xml version="1.0" encoding="UTF-8"?>
<!-- Koi — breed micro-crests (retail, six breeds). Order: slot 1 left to slot 6 right. See design/style_guide.md section 5. -->
<svg xmlns="http://www.w3.org/2000/svg" viewBox="0 0 688 92" width="688" height="92" role="img" aria-labelledby="title desc">
  <title id="title">Koi — breed crests (six breeds, retail)</title>
  <desc id="desc">Koi retail row — six horizontal slot motifs: Kohaku, Karasu, Asagi, Ogon, Chagoi, Tancho.</desc>

  <defs>
    <linearGradient id="ogonShine" x1="0" y1="0" x2="0" y2="1">
      <stop offset="0%" stop-color="#F5EDB8" stop-opacity="0.95"/>
      <stop offset="35%" stop-color="#E0B040" stop-opacity="0"/>
      <stop offset="100%" stop-color="#C49A2E"/>
    </linearGradient>
    <pattern id="asagiScale" width="5" height="5" patternUnits="userSpaceOnUse">
      <rect width="5" height="5" fill="#2E6F95"/>
      <path d="M0 0 L5 5 M5 0 L0 5" stroke="#1a4a6b" stroke-width="0.35" opacity="0.85"/>
    </pattern>
    <clipPath id="crestInner" clipPathUnits="userSpaceOnUse">
      <rect x="0" y="0" width="90" height="36" rx="1"/>
    </clipPath>
    <linearGradient id="kohakuFlankSkin" x1="0" y1="0" x2="0" y2="1">
      <stop offset="0%" stop-color="#faf9f6"/>
      <stop offset="45%" stop-color="#f3f1ed"/>
      <stop offset="100%" stop-color="#e9e6e0"/>
    </linearGradient>
    <linearGradient id="karasuSheen" x1="0" y1="0" x2="0" y2="1">
      <stop offset="0%" stop-color="#2a2a2a" stop-opacity="0.45"/>
      <stop offset="42%" stop-color="#0D0D0D" stop-opacity="0"/>
      <stop offset="100%" stop-color="#050505"/>
    </linearGradient>
    <pattern id="karasuMicroScale" width="4" height="4" patternUnits="userSpaceOnUse">
      <rect width="4" height="4" fill="#0D0D0D"/>
      <path d="M0 0 L4 4 M4 0 L0 4" stroke="#242424" stroke-width="0.22" opacity="0.4"/>
    </pattern>
    <style type="text/css"><![CDATA[
      .slot { fill: none; stroke: #3d3d3d; stroke-width: 1.25; }
      .label { font-family: system-ui, -apple-system, "Segoe UI", sans-serif; font-size: 10px; fill: #2a2a2a; font-weight: 600; }
      .sublabel { font-family: system-ui, -apple-system, "Segoe UI", sans-serif; font-size: 8px; fill: #555; }
    ]]></style>
  </defs>

  <rect width="688" height="92" fill="#f4f2ec"/>

  <!-- 1 Kohaku -->
  <g transform="translate(14,14)">
    <rect class="slot" x="0" y="0" width="92" height="38" rx="2"/>
    <rect x="1" y="1" width="90" height="36" rx="1" fill="#f5f5f0"/>
    <g transform="translate(1,1)" clip-path="url(#crestInner)">
      <rect width="90" height="36" fill="url(#kohakuFlankSkin)"/>
      <path fill="#e3e1db" opacity="0.85" d="M 0 0 L 90 0 Q 90 7 45 10 Q 0 7 0 0 Z"/>
      <path fill="#D7263D" d="M -35 28 C 8 18 48 22 78 30 C 105 36 115 52 95 60 L -40 60 Z"/>
      <path fill="#D7263D" d="M 55 -25 C 100 -12 108 18 88 38 C 62 36 38 20 32 2 C 30 -18 40 -28 55 -25 Z"/>
      <path fill="#D7263D" d="M -20 -15 C 25 -22 52 -5 48 14 C 20 12 -5 5 -20 -15 Z"/>
      <path fill="#ebe9e4" stroke="#d8d6d1" stroke-width="0.5" d="M -6 40 Q 12 18 34 24 Q 28 38 10 42 Q -2 44 -6 40 Z"/>
    </g>
  </g>
  <text class="label" x="60" y="66" text-anchor="middle">Kohaku</text>
  <text class="sublabel" x="60" y="78" text-anchor="middle">#1</text>

  <!-- 2 Karasu -->
  <g transform="translate(128,14)">
    <rect class="slot" x="0" y="0" width="92" height="38" rx="2"/>
    <rect x="1" y="1" width="90" height="36" rx="1" fill="#0D0D0D"/>
    <rect x="1" y="1" width="90" height="36" rx="1" fill="url(#karasuMicroScale)" opacity="0.5"/>
    <rect x="1" y="1" width="90" height="36" rx="1" fill="url(#karasuSheen)"/>
  </g>
  <text class="label" x="174" y="66" text-anchor="middle">Karasu</text>
  <text class="sublabel" x="174" y="78" text-anchor="middle">#2</text>

  <!-- 3 Asagi -->
  <g transform="translate(242,14)">
    <rect class="slot" x="0" y="0" width="92" height="38" rx="2"/>
    <rect x="1" y="1" width="90" height="36" rx="1" fill="#f5f5f0"/>
    <rect x="1" y="1" width="12" height="36" fill="#D7263D"/>
    <rect x="79" y="1" width="12" height="36" fill="#D7263D"/>
    <rect x="15" y="1" width="62" height="36" fill="url(#asagiScale)"/>
  </g>
  <text class="label" x="288" y="66" text-anchor="middle">Asagi</text>
  <text class="sublabel" x="288" y="78" text-anchor="middle">#3</text>

  <!-- 4 Ogon -->
  <g transform="translate(356,14)">
    <rect class="slot" x="0" y="0" width="92" height="38" rx="2"/>
    <rect x="1" y="1" width="90" height="36" rx="1" fill="#E0B040"/>
    <rect x="1" y="1" width="90" height="36" rx="1" fill="url(#ogonShine)"/>
  </g>
  <text class="label" x="402" y="66" text-anchor="middle">Ogon</text>
  <text class="sublabel" x="402" y="78" text-anchor="middle">#4</text>

  <!-- 5 Chagoi -->
  <g transform="translate(470,14)">
    <rect class="slot" x="0" y="0" width="92" height="38" rx="2"/>
    <rect x="1" y="1" width="90" height="36" rx="1" fill="#7B4B2A"/>
    <g opacity="0.22" stroke="#3d2818" stroke-width="0.6">
      <line x1="8" y1="4" x2="8" y2="34"/>
      <line x1="22" y1="4" x2="22" y2="34"/>
      <line x1="36" y1="4" x2="36" y2="34"/>
      <line x1="50" y1="4" x2="50" y2="34"/>
      <line x1="64" y1="4" x2="64" y2="34"/>
      <line x1="78" y1="4" x2="78" y2="34"/>
    </g>
  </g>
  <text class="label" x="516" y="66" text-anchor="middle">Chagoi</text>
  <text class="sublabel" x="516" y="78" text-anchor="middle">#5</text>

  <!-- 6 Tancho -->
  <g transform="translate(584,14)">
    <rect class="slot" x="0" y="0" width="92" height="38" rx="2"/>
    <rect x="1" y="1" width="90" height="36" rx="1" fill="#f5f5f0"/>
    <circle cx="46" cy="19" r="11" fill="#D7263D"/>
  </g>
  <text class="label" x="630" y="66" text-anchor="middle">Tancho</text>
  <text class="sublabel" x="630" y="78" text-anchor="middle">#6</text>
</svg>
